<svg width="18" height="19" viewBox="0 0 18 19" fill="none" xmlns="http://www.w3.org/2000/svg">
<path d="M9 3.77252C5.25 3.77252 2.0475 6.10502 0.75 9.39752C2.0475 12.69 5.25 15.0225 9 15.0225C12.75 15.0225 15.9525 12.69 17.25 9.39752C15.9525 6.10502 12.75 3.77252 9 3.77252ZM9 13.1475C6.93 13.1475 5.25 11.4675 5.25 9.39752C5.25 7.32752 6.93 5.64752 9 5.64752C11.07 5.64752 12.75 7.32752 12.75 9.39752C12.75 11.4675 11.07 13.1475 9 13.1475ZM9 7.14752C7.755 7.14752 6.75 8.15252 6.75 9.39752C6.75 10.6425 7.755 11.6475 9 11.6475C10.245 11.6475 11.25 10.6425 11.25 9.39752C11.25 8.15252 10.245 7.14752 9 7.14752Z" fill="#E66652"/>
</svg>
